<svg xmlns="http://www.w3.org/2000/svg" style="display:none">

  <!-- Weather / Tenki -->
  <symbol id="icon-tenki" viewBox="0 0 32 32" fill="none" stroke="currentColor" stroke-width="2" stroke-linecap="round" stroke-linejoin="round">
    <circle cx="16" cy="14" r="5"/>
    <path d="M16 3v3M16 22v3M5 14H2M30 14h-3M7.8 5.8l2.1 2.1M22.1 20.1l2.1 2.1M7.8 22.2l2.1-2.1M22.1 7.9l2.1-2.1"/>
    <path d="M8 27a4 4 0 0 1 0-8h14a5 5 0 1 1 0 10H8z" fill="none"/>
  </symbol>

  <!-- Envelope / Tsutsumicho -->
  <symbol id="icon-tsutsumicho" viewBox="0 0 32 32" fill="none" stroke="currentColor" stroke-width="2" stroke-linecap="round" stroke-linejoin="round">
    <rect x="3" y="8" width="26" height="18" rx="2"/>
    <path d="M3 10l13 9 13-9"/>
    <path d="M16 19v-6M13 16l3 3 3-3" stroke-width="1.5"/>
  </symbol>

  <!-- Chart / iDeCo -->
  <symbol id="icon-ideco" viewBox="0 0 32 32" fill="none" stroke="currentColor" stroke-width="2" stroke-linecap="round" stroke-linejoin="round">
    <rect x="3" y="3" width="26" height="26" rx="3"/>
    <path d="M8 22V16M13 22V12M18 22V14M23 22V8"/>
  </symbol>

  <!-- Car -->
  <symbol id="icon-car" viewBox="0 0 32 32" fill="none" stroke="currentColor" stroke-width="2" stroke-linecap="round" stroke-linejoin="round">
    <path d="M5 20h22v4a2 2 0 0 1-2 2H7a2 2 0 0 1-2-2v-4z"/>
    <path d="M7 20l2-8a2 2 0 0 1 2-2h10a2 2 0 0 1 2 2l2 8"/>
    <circle cx="9" cy="23" r="1.5" fill="currentColor"/>
    <circle cx="23" cy="23" r="1.5" fill="currentColor"/>
    <path d="M11 16h10"/>
  </symbol>

  <!-- PDF / Document -->
  <symbol id="icon-pdf" viewBox="0 0 32 32" fill="none" stroke="currentColor" stroke-width="2" stroke-linecap="round" stroke-linejoin="round">
    <path d="M8 3h10l8 8v18a2 2 0 0 1-2 2H8a2 2 0 0 1-2-2V5a2 2 0 0 1 2-2z"/>
    <path d="M18 3v8h8"/>
    <path d="M10 17h12M10 21h8"/>
  </symbol>

  <!-- Food / Ryokou -->
  <symbol id="icon-ryokou" viewBox="0 0 32 32" fill="none" stroke="currentColor" stroke-width="2" stroke-linecap="round" stroke-linejoin="round">
    <path d="M3 16h26"/>
    <path d="M5 16a11 11 0 0 1 22 0"/>
    <path d="M6 20a10 10 0 0 0 20 0"/>
    <path d="M16 24v4"/>
    <path d="M10 28h12"/>
  </symbol>

  <!-- Image / Gazou -->
  <symbol id="icon-gazou" viewBox="0 0 32 32" fill="none" stroke="currentColor" stroke-width="2" stroke-linecap="round" stroke-linejoin="round">
    <rect x="3" y="5" width="26" height="22" rx="3"/>
    <circle cx="11" cy="13" r="2.5"/>
    <path d="M29 22l-7-7-5 5-3-3-8 8"/>
  </symbol>

  <!-- Video / VideoMemo -->
  <symbol id="icon-videomemo" viewBox="0 0 32 32" fill="none" stroke="currentColor" stroke-width="2" stroke-linecap="round" stroke-linejoin="round">
    <rect x="2" y="6" width="20" height="20" rx="3"/>
    <path d="M22 14l8-5v14l-8-5v-4z"/>
    <path d="M9 14v4M11 12v8M13 14v4" stroke-width="1.5"/>
  </symbol>

</svg>
